<?xml version="1.0" standalone="no"?>
<!DOCTYPE svg PUBLIC "-//W3C//DTD SVG 20010904//EN"
 "http://www.w3.org/TR/2001/REC-SVG-20010904/DTD/svg10.dtd">
<svg version="1.0" xmlns="http://www.w3.org/2000/svg"
 width="1024.000000pt" height="1024.000000pt" viewBox="0 0 1024.000000 1024.000000"
 preserveAspectRatio="xMidYMid meet">

<g transform="translate(0.000000,1024.000000) scale(0.100000,-0.100000)"
fill="#000000" stroke="none">
<path d="M5320 6895 c85 -76 209 -205 268 -279 l47 -58 15 23 c8 12 32 53 52
91 l38 69 -38 16 c-47 19 -424 184 -437 190 -5 3 19 -21 55 -52z"/>
<path d="M4494 6741 c-843 -384 -1047 -476 -1096 -499 l-57 -27 40 -97 41 -96
91 40 c110 49 724 329 1070 489 136 62 247 116 247 119 -1 5 -32 29 -136 103
l-50 36 -150 -68z"/>
<path d="M6179 6433 c-24 -49 -43 -92 -43 -96 -1 -5 152 -78 339 -162 l340
-152 14 26 c21 38 72 164 68 167 -7 7 -664 304 -672 304 -2 0 -23 -39 -46 -87z"/>
<path d="M5050 6382 c-30 -9 -605 -265 -617 -275 -13 -10 -19 -167 -7 -167 4
0 27 8 53 17 l47 16 197 -64 197 -64 0 -746 0 -747 -195 -1 -195 -1 0 764 0
765 -37 -14 c-21 -7 -144 -55 -273 -105 -129 -51 -268 -104 -307 -118 l-73
-27 0 -632 0 -633 -105 0 -105 0 0 -60 0 -60 1515 0 1515 0 0 60 0 60 -182 1
c-101 1 -264 2 -363 2 l-180 2 -3 634 c-2 579 -4 633 -18 627 -9 -4 -36 -11
-60 -17 l-44 -11 0 -619 0 -619 -370 1 -370 1 -2 1017 c-3 899 -5 1017 -18
1013z m-700 -932 l0 -109 -66 -21 c-36 -11 -70 -20 -75 -20 -5 0 -9 49 -9 109
l0 109 58 20 c96 34 92 38 92 -88z m-240 -78 l0 -108 -57 -18 c-32 -10 -64
-21 -70 -23 -10 -4 -13 21 -13 105 l0 110 58 20 c31 11 63 21 70 21 9 1 12
-27 12 -107z m240 -272 l0 -109 -42 -11 c-24 -6 -56 -15 -71 -20 -37 -12 -38
-6 -35 115 l3 99 55 17 c95 29 90 34 90 -91z m-240 -69 l0 -108 -58 -17 c-32
-9 -64 -16 -70 -16 -9 0 -12 31 -12 108 l0 107 53 16 c92 29 87 34 87 -90z
m240 -281 l0 -109 -37 -11 c-21 -5 -55 -13 -75 -16 l-38 -7 0 111 0 110 58 15
c98 26 92 32 92 -93z m-240 -60 l0 -109 -38 -10 c-21 -6 -52 -14 -70 -17 l-32
-6 0 110 0 110 58 15 c31 8 63 15 70 16 9 1 12 -27 12 -109z"/>
<path d="M4890 3475 l0 -405 69 0 68 0 7 46 c3 26 6 63 6 83 0 30 8 45 45 81
34 33 47 41 57 32 7 -6 52 -63 98 -126 l85 -116 88 0 88 0 -20 28 c-11 15 -68
91 -126 170 -58 79 -105 146 -105 150 0 4 53 60 117 124 l118 118 -89 0 -88 0
-131 -125 c-72 -68 -132 -123 -134 -121 -2 2 -5 99 -8 217 -2 118 -4 222 -4
232 -1 14 -11 17 -71 17 l-70 0 0 -405z"/>
<path d="M2610 3450 l0 -382 253 4 c267 5 300 10 369 59 59 42 85 149 54 222
-17 39 -61 82 -100 97 l-30 11 37 30 c68 56 86 147 45 229 -19 36 -35 51 -82
75 l-60 30 -243 3 -243 4 0 -382z m446 244 c67 -32 67 -126 0 -162 -24 -12
-59 -16 -156 -17 l-125 0 -3 98 -3 97 127 0 c94 0 134 -4 160 -16z m46 -317
c56 -39 56 -125 0 -164 -23 -15 -52 -19 -179 -21 l-153 -4 0 107 0 107 153 -4
c127 -2 156 -6 179 -21z"/>
<path d="M3635 3661 c-88 -23 -158 -77 -200 -152 -26 -48 -30 -64 -30 -139 0
-101 24 -166 83 -223 61 -59 122 -81 227 -81 105 0 165 21 229 82 81 77 109
210 70 325 -21 62 -83 130 -148 162 -58 28 -173 41 -231 26z m165 -136 c16 -8
39 -29 52 -47 19 -28 23 -45 23 -113 0 -68 -4 -85 -23 -113 -32 -44 -77 -66
-137 -66 -97 -1 -165 73 -165 179 0 141 128 223 250 160z"/>
<path d="M4357 3660 c-116 -29 -194 -106 -223 -220 -20 -77 -13 -142 22 -217
67 -141 261 -202 424 -132 63 27 132 102 154 166 20 59 20 156 0 216 -21 62
-83 130 -148 162 -60 29 -166 41 -229 25z m168 -139 c16 -9 40 -35 53 -57 30
-52 28 -167 -4 -211 -32 -45 -101 -75 -153 -69 -107 14 -165 101 -146 222 8
54 61 119 109 134 40 12 103 4 141 -19z"/>
</g>
</svg>
